<svg width="201" height="73" viewBox="0 0 201 73" fill="none" xmlns="http://www.w3.org/2000/svg">
<path d="M136.323 52.0798H136.275C127.731 58.1278 117.651 64.4638 106.755 71.1358L106.323 71.3758C106.276 71.3951 106.234 71.4249 106.2 71.4628C106.166 71.5008 106.141 71.546 106.127 71.595C106.113 71.6439 106.111 71.6954 106.12 71.7455C106.128 71.7956 106.149 71.843 106.179 71.8842C106.209 71.9254 106.247 71.9592 106.292 71.9831C106.337 72.0071 106.387 72.0205 106.438 72.0223C106.489 72.0242 106.539 72.0145 106.586 71.994C106.632 71.9734 106.674 71.9426 106.707 71.9038L107.043 71.7118C116.307 66.9118 126.915 61.1998 137.571 55.2958L137.763 55.1998C137.134 54.2352 136.649 53.1842 136.323 52.0798ZM192.387 6.67176C178.947 -8.16024 92.2587 5.18376 55.4427 13.2478L54.5787 13.4398C54.4943 13.4615 54.4197 13.5114 54.3674 13.5812C54.315 13.651 54.288 13.7366 54.2907 13.8238C54.2954 13.8671 54.3099 13.9088 54.333 13.9458C54.3562 13.9827 54.3875 14.0139 54.4244 14.037C54.4614 14.0602 54.5032 14.0746 54.5465 14.0792C54.5899 14.0838 54.6337 14.0785 54.6747 14.0638L55.5387 13.9198C86.0667 8.49576 149.571 0.959761 163.203 14.4958C167.379 18.6238 166.419 23.9518 161.571 30.2398C164.247 31.9882 166.14 34.7071 166.851 37.8238C185.715 25.2958 198.387 13.2958 192.387 6.67176Z" fill="#CC2427"/>
<path d="M63.9863 40.4639C62.9335 40.4671 61.9087 40.8031 61.0584 41.4239C60.187 42.1506 59.6215 43.1789 59.4744 44.3039C59.1864 45.7919 59.3304 46.7999 59.9064 47.4719C60.2418 47.7979 60.6408 48.0514 61.0785 48.2166C61.5161 48.3817 61.9831 48.455 62.4504 48.4319C63.1777 48.4466 63.8992 48.299 64.5623 47.9999C65.2025 47.7038 65.75 47.2392 66.1463 46.6559C66.5953 45.9884 66.9054 45.2376 67.0583 44.4479C67.2983 43.1039 67.1063 42.1439 66.4823 41.4719C66.1638 41.1335 65.7758 40.8682 65.3449 40.6941C64.914 40.5201 64.4505 40.4416 63.9863 40.4639ZM49.0584 59.0879L53.0424 36.6239H60.2424L59.6664 39.5039C60.4548 38.5177 61.5017 37.7699 62.6903 37.3439C64.1699 36.7395 65.7484 36.414 67.3463 36.3839C69.2183 36.3839 70.3703 36.4799 71.7623 37.1999C73.0821 37.8621 74.1085 38.9912 74.6423 40.3679C75.208 41.8189 75.3414 43.4027 75.0263 44.9279C74.8266 46.2374 74.367 47.4938 73.6745 48.6231C72.9821 49.7524 72.0708 50.7319 70.9943 51.5039C68.7863 53.0879 66.8183 53.5199 63.9863 53.5199C63.1294 53.5356 62.2741 53.4388 61.4424 53.2319C60.87 53.1073 60.3198 52.897 59.8104 52.6079C59.3126 52.2489 58.8612 51.8297 58.4664 51.3599L57.1224 59.0879H49.0584ZM132.146 53.2799H123.794L128.018 29.9519L136.13 30.1439L132.146 53.2799ZM90.4823 36.4319L91.0583 33.0239L99.6023 31.1999L98.6903 36.4319H102.914L102.098 39.8399H98.0183L95.5703 53.2799H87.2663L89.7623 39.8399H86.6423L87.2663 36.4799H90.4823V36.4319ZM23.9544 47.2799C21.7175 47.7803 19.4305 48.0219 17.1384 47.9999C13.2504 47.9999 10.1304 46.0799 10.3224 42.4799C10.4184 40.1279 13.2504 35.1359 20.3544 35.1359C22.6045 35.0839 24.8217 35.684 26.7384 36.8639L27.7464 31.0559C25.1848 30.0385 22.4354 29.5803 19.6824 29.7119C10.3224 29.8079 1.34642 34.0319 0.242418 42.6719C-0.861581 51.3119 9.84241 53.6639 14.5944 53.6639C17.3304 53.6639 20.2104 53.5199 22.8504 53.2799L23.9544 47.2799ZM115.01 45.5999L113.618 45.9839L110.402 46.5599C109.642 46.6221 108.904 46.8516 108.242 47.2319C108.049 47.3406 107.884 47.4924 107.759 47.6756C107.634 47.8588 107.553 48.0683 107.522 48.2879C107.465 48.5009 107.476 48.7267 107.553 48.9333C107.631 49.1399 107.771 49.3171 107.954 49.4399C108.386 49.7279 109.058 49.8239 110.018 49.8239C110.732 49.8259 111.443 49.729 112.13 49.5359C112.762 49.351 113.349 49.0409 113.858 48.6239C114.195 48.3286 114.444 47.9468 114.578 47.5199C114.781 46.8944 114.925 46.2517 115.01 45.5999ZM123.842 40.0799C123.794 40.8959 123.65 41.6639 123.458 42.8639L121.97 51.2639C121.891 51.6017 121.929 51.9564 122.077 52.2702C122.225 52.584 122.475 52.8384 122.786 52.9919V53.2799H114.194V51.1199C112.901 51.889 111.514 52.4861 110.066 52.8959C108.718 53.241 107.33 53.4024 105.938 53.3759C103.202 53.3759 101.618 53.0879 100.514 52.1279C99.4103 51.1679 98.8823 50.4959 98.9303 49.1519C99.0212 48.2321 99.3895 47.3616 99.9863 46.6559C100.614 45.9699 101.384 45.4293 102.242 45.0719C103.326 44.5877 104.474 44.2643 105.65 44.1119C107.186 43.8719 109.298 43.6319 112.13 43.3919C113.081 43.3 114.016 43.0904 114.914 42.7679C115.49 42.5279 115.73 42.2879 115.826 41.8079C115.922 41.3279 115.73 40.4639 114.578 40.2239C111.506 39.5999 105.746 40.6079 102.77 41.3279L104.354 37.0079C108.149 36.4043 111.984 36.0834 115.826 36.0479C121.922 36.0959 123.89 37.8719 123.842 40.0799ZM74.7863 53.2799L77.7623 36.5279H85.9703L82.9943 53.2799H74.7863ZM78.2423 32.6879C78.4823 31.2959 80.6423 30.1919 83.0903 30.1919C85.5383 30.1919 87.2663 31.2959 87.0263 32.6879C86.7863 34.0799 84.6263 35.1839 82.1783 35.1839C79.7303 35.1839 78.0023 34.0319 78.2423 32.6879ZM41.1864 45.5519C40.7388 45.7333 40.2717 45.8622 39.7944 45.9359L36.6264 46.5119C35.8492 46.5671 35.0945 46.7968 34.4184 47.1839C34.224 47.3029 34.0585 47.4637 33.9339 47.6547C33.8094 47.8457 33.7289 48.0619 33.6984 48.2879C33.649 48.499 33.669 48.7205 33.7555 48.9194C33.8419 49.1183 33.9903 49.284 34.1784 49.3919C34.7919 49.7348 35.4943 49.8853 36.1944 49.8239C36.9105 49.8097 37.6212 49.6966 38.3064 49.4879C38.9378 49.303 39.5255 48.9929 40.0344 48.5759C40.3708 48.2806 40.6198 47.8988 40.7544 47.4719C40.9874 46.8552 41.1328 46.2089 41.1864 45.5519ZM50.0184 40.0799C49.9704 40.8959 49.8264 41.6159 49.6344 42.8639L48.1464 51.2159C48.0672 51.5537 48.1048 51.9084 48.2529 52.2222C48.4011 52.536 48.6512 52.7904 48.9624 52.9439V53.2799H40.3704V51.1679C39.0661 51.902 37.6807 52.4819 36.2424 52.8959C34.9124 53.2552 33.54 53.4328 32.1624 53.4239C29.3784 53.4239 27.7944 53.1359 26.7384 52.1759C25.6824 51.2159 25.0584 50.5439 25.1064 49.1519C25.2095 48.2496 25.5769 47.398 26.1624 46.7039C26.7872 46.0028 27.557 45.446 28.4184 45.0719C29.524 44.6036 30.6857 44.281 31.8744 44.1119C33.3624 43.8719 35.4744 43.6319 38.3064 43.3919C39.2656 43.363 40.2106 43.1512 41.0904 42.7679C41.7144 42.5279 41.9064 42.2879 42.0024 41.8079C42.0984 41.3279 41.9064 40.4639 40.7544 40.2239C37.6824 39.6479 31.9224 40.6079 28.9464 41.3759L30.5304 37.0079C34.3256 36.4062 38.16 36.0854 42.0024 36.0479C48.0984 36.0479 50.0664 37.8239 50.0184 40.0799Z" fill="#013D5B"/>
<path d="M165.554 42.3363L167.426 42.1443C168.05 42.1443 168.578 42.2883 168.626 42.8643C168.674 43.4403 168.002 45.7443 167.858 46.3683L166.562 51.9843C166.082 54.2883 165.506 56.6883 165.026 58.6083H168.29L170.114 49.6803C175.778 43.8243 177.938 41.9043 179.234 41.9043C179.376 41.8892 179.52 41.9061 179.655 41.9538C179.79 42.0016 179.913 42.0789 180.014 42.1801C180.115 42.2814 180.193 42.404 180.24 42.539C180.288 42.674 180.305 42.8179 180.29 42.9603C180.338 43.9683 179.666 46.3203 179.474 46.9923L177.554 53.4723C177.17 54.9603 176.834 56.2563 176.882 57.2163C176.93 58.1763 177.794 59.2803 179.042 59.2803C181.442 59.2803 183.218 56.7843 184.706 54.3363L184.274 53.5203C183.65 54.4803 182.258 56.6403 181.106 56.6403C180.77 56.6403 180.434 56.4003 180.434 55.8243C180.473 54.9265 180.634 54.0383 180.914 53.1843L183.026 45.5523C183.554 43.4403 183.842 42.0963 183.842 41.3763C183.842 40.6563 182.93 39.3123 181.682 39.3123C179.522 39.3123 176.642 40.8963 170.594 47.8563H170.498L171.266 44.4483C171.698 42.5763 172.082 40.6563 172.466 39.3123C170.192 40.1204 167.867 40.7779 165.506 41.2803L165.554 42.3363ZM197.666 42.5283C197.618 41.1843 196.946 40.2723 195.554 40.2723C192.194 40.2723 188.642 46.8483 188.018 49.4883C193.49 49.4883 197.81 46.2243 197.666 42.5283ZM198.386 52.8483L199.01 53.2803C197.378 56.5923 194.066 59.2803 190.13 59.2803C186.914 59.2803 184.322 57.1683 184.178 53.1843C183.89 45.9843 190.658 39.3123 196.13 39.3123C198.482 39.3123 200.69 40.3683 200.786 42.9123C200.978 48.6243 192.962 50.3523 187.682 50.4483C187.509 51.1381 187.444 51.8506 187.49 52.5603C187.586 54.9603 189.026 56.9283 191.954 56.9283C194.882 56.9283 197.09 54.8643 198.386 52.8483ZM141.794 48.1923C141.938 53.4243 145.25 57.6963 149.57 57.6963C157.922 57.6963 161.474 47.4243 161.234 40.5603C161.042 35.3283 157.682 31.0563 153.362 31.0563C146.162 31.0563 141.506 41.2803 141.794 48.1923ZM137.378 47.9043C137.042 38.9763 144.05 29.8563 154.178 29.8563C160.994 29.8563 165.41 34.4163 165.65 41.3283C165.986 50.7363 159.458 59.3763 148.85 59.3763C142.034 59.3763 137.618 54.8643 137.378 47.9043Z" fill="#013D5B"/>
</svg>
